<?xml version="1.0" encoding="UTF-8"?>
<svg xmlns="http://www.w3.org/2000/svg" xmlns:xlink="http://www.w3.org/1999/xlink" viewBox="0 0 48 48" version="1.1" width="48px" height="48px">
<g id="surface1">
<path style=" fill:#B71C1C;" d="M 38.101563 18.800781 C 37.898438 17.300781 37.601563 11 36.101563 9 C 30.800781 4.800781 24.101563 5 24.101563 5 C 24.101563 5 17.398438 4.800781 12.101563 9 C 10.699219 11 10.199219 17.300781 10.101563 18.800781 L 10.601563 28 L 10.601563 28.199219 C 10.601563 28.199219 12.5 36.5 13.300781 37.898438 C 14.199219 39.699219 16.898438 43.101563 19.101563 44.398438 C 20 44.898438 22.398438 45 24.101563 45 C 26 45 28.300781 44.800781 29.101563 44.398438 C 31.300781 43.300781 33.898438 39.800781 34.898438 37.898438 C 35.699219 36.5 37.601563 28.199219 37.601563 28.199219 L 37.601563 28 Z "/>
<path style=" fill:#FFC107;" d="M 34.898438 29 C 34.398438 29.601563 31.5 35.199219 31.5 35.199219 C 31.5 35.199219 31 37.398438 31.5 39.398438 C 32 41.398438 31 41.601563 31 41.601563 L 29.800781 43 L 27.601563 42.101563 L 20.898438 42.101563 L 18.699219 43 L 17.5 41.601563 C 17.5 41.601563 16.601563 41.398438 17 39.398438 C 17.5 37.398438 17 35.199219 17 35.199219 C 17 35.199219 13.601563 29.699219 13.101563 29 C 12.601563 28.398438 12.300781 26.199219 12.300781 26.199219 L 13.5 22.699219 L 13.199219 12.101563 C 13.199219 12.101563 14.101563 10.699219 15.398438 9.800781 C 16.5 9 19.601563 8.101563 19.601563 8.101563 L 20.699219 15.898438 C 20.699219 15.898438 21 17.601563 21 17.699219 C 21 17.898438 22.101563 18.199219 22.101563 18.199219 L 26.199219 18.199219 C 26.199219 18.199219 27.300781 17.898438 27.300781 17.699219 C 27.300781 17.5 27.601563 15.898438 27.601563 15.898438 L 28.699219 8.101563 C 28.699219 8.101563 31.800781 8.898438 32.898438 9.800781 C 33.800781 10.699219 34.898438 12.101563 34.898438 12.101563 L 34.601563 22.601563 L 35.800781 26.101563 C 35.699219 26.199219 35.398438 28.398438 34.898438 29 Z "/>
<path style=" fill:#E8B006;" d="M 34.300781 27 L 33.699219 27.300781 C 32.5 28 31.800781 28.398438 31.300781 28.601563 C 30.898438 29 30.300781 29 30.101563 29 L 27 29.199219 L 27 29.601563 L 27 29.199219 C 26.601563 29.199219 26.101563 29.101563 25.800781 28.601563 C 25.699219 28.5 25.5 28.199219 25.101563 27.601563 C 24.898438 27.398438 24.398438 27.300781 24 27.300781 C 23.601563 27.300781 23.199219 27.300781 22.898438 27.601563 C 22.5 28.199219 22.300781 28.398438 22.199219 28.601563 C 21.898438 29 21.398438 29.199219 21 29.199219 L 17.800781 29 C 17.699219 29 17.101563 29 16.5 28.601563 C 16.101563 28.398438 15.398438 28 14.199219 27.300781 L 13.5 26.898438 C 13.300781 26.800781 13.101563 26.601563 13.101563 26.300781 C 13 25.898438 13.300781 25.5 13.398438 25.398438 L 14.699219 24.398438 C 14.800781 24.300781 15.300781 24.101563 15.800781 24.300781 C 16 24.398438 16.199219 24.398438 16.5 24.5 C 17.699219 24.898438 20 25.800781 22 25.898438 L 25.699219 25.898438 C 27.800781 25.800781 30 24.898438 31.199219 24.5 C 31.5 24.398438 31.699219 24.300781 31.898438 24.300781 C 32.300781 24.101563 32.898438 24.300781 33 24.398438 L 34.300781 25.398438 C 34.398438 25.5 34.699219 25.800781 34.601563 26.300781 C 34.800781 26.601563 34.601563 26.800781 34.300781 27 Z "/>
<path style=" fill:#81D4FA;" d="M 25.601563 27.199219 C 25.601563 27.199219 26.199219 28.101563 26.398438 28.300781 C 26.601563 28.601563 27 28.601563 27 28.601563 L 30.101563 28.398438 C 30.101563 28.398438 30.699219 28.398438 31 28.101563 C 31.5 27.898438 33.199219 26.898438 34 26.398438 C 34.300781 26.199219 34 25.898438 34 25.898438 L 32.800781 25 C 32.800781 25 32.601563 24.800781 32.300781 25 C 31.398438 25.300781 28.601563 26.5 25.898438 26.699219 C 25.101563 26.800781 25.601563 27.199219 25.601563 27.199219 Z "/>
<path style=" fill:#81D4FA;" d="M 22.398438 27.199219 C 22.398438 27.199219 21.800781 28.101563 21.601563 28.300781 C 21.398438 28.601563 21 28.601563 21 28.601563 L 17.898438 28.398438 C 17.898438 28.398438 17.300781 28.398438 17 28.101563 C 16.5 27.898438 14.800781 26.898438 14 26.398438 C 13.699219 26.199219 14 25.898438 14 25.898438 L 15.199219 25 C 15.199219 25 15.398438 24.800781 15.699219 25 C 16.601563 25.300781 19.398438 26.5 22.101563 26.699219 C 22.898438 26.800781 22.398438 27.199219 22.398438 27.199219 Z "/>
<path style=" fill:#E1F5FE;" d="M 27.601563 27.699219 L 30.199219 27.699219 L 32.699219 26.199219 L 32 25.101563 C 31 25.5 29 26.300781 26.898438 26.601563 Z "/>
<path style=" fill:#E1F5FE;" d="M 21.101563 26.601563 C 19 26.300781 17 25.5 16 25.101563 L 15.300781 26.199219 L 17.800781 27.699219 L 20.398438 27.699219 Z "/>
<path style=" fill:#851414;" d="M 37.300781 28.101563 L 38.101563 28.101563 C 38.398438 28.101563 38.699219 27.800781 38.699219 27.5 L 39 19.5 C 39 19.199219 38.699219 18.898438 38.398438 18.898438 L 38.101563 18.898438 Z "/>
<path style=" fill:#851414;" d="M 9.898438 18.800781 L 9.601563 18.800781 C 9.300781 18.800781 9 19.101563 9 19.398438 L 9.300781 27.398438 C 9.300781 27.699219 9.601563 28 9.898438 28 L 10.699219 28 Z "/>
</g>
</svg>
